<?xml version="1.0" encoding="UTF-8" standalone="no"?><!DOCTYPE svg PUBLIC "-//W3C//DTD SVG 1.1//EN" "http://www.w3.org/Graphics/SVG/1.1/DTD/svg11.dtd"><svg width="100%" height="100%" viewBox="0 0 1351 129" version="1.1" xmlns="http://www.w3.org/2000/svg" xmlns:xlink="http://www.w3.org/1999/xlink" xml:space="preserve" xmlns:serif="http://www.serif.com/" style="fill-rule:evenodd;clip-rule:evenodd;stroke-linejoin:round;stroke-miterlimit:2;"><path d="M1345.12,69.212l-632.291,0c22.439,-34.179 1.931,-66.297 -33.312,-59.461c-27.669,5.338 -38.889,40.039 -20.595,57.291c11.632,10.959 27.821,13.368 43.295,10.612c-19.271,19.184 -46.181,8.203 -53.429,1.085c-26.194,-25.781 -9.918,-67.122 27.821,-77.083c31.858,-8.398 68.598,15.82 52.213,57.4l616.298,0l5.035,4.948l-0,0.26l-5.035,4.948Z" style="fill:#ba9c56;fill-rule:nonzero;"/><path d="M5.013,59.056l632.292,0c-22.44,34.18 -1.932,66.276 33.311,59.462c27.67,-5.36 38.911,-40.039 20.595,-57.292c-11.632,-10.959 -27.821,-13.368 -43.273,-10.612c19.249,-19.205 46.181,-8.225 53.407,-1.085c26.194,25.781 9.918,67.123 -27.821,77.084c-31.857,8.398 -68.598,-15.842 -52.192,-57.401l-616.319,0l-5.013,-4.948l-0,-0.26l5.013,-4.948Z" style="fill:#ba9c56;fill-rule:nonzero;"/></svg>